<?xml version="1.0" encoding="UTF-8"?>
<svg width="16px" height="18px" viewBox="0 0 16 18" version="1.1" xmlns="http://www.w3.org/2000/svg" xmlns:xlink="http://www.w3.org/1999/xlink">
    <!-- Generator: Sketch 61 (89581) - https://sketch.com -->
    <title>02圖標/08圖像圖標/CRUD類型-刪除</title>
    <desc>Created with Sketch.</desc>
    <defs>
        <path d="M14,5.5 C14.5522847,5.5 15,5.94771525 15,6.5 L15,16.5 C15,17.0522847 14.5522847,17.5 14,17.5 L4,17.5 C3.44771525,17.5 3,17.0522847 3,16.5 L3,6.5 C3,5.94771525 3.44771525,5.5 4,5.5 L14,5.5 Z M13.8,6.7 L4.2,6.7 L4.2,16.3 L13.8,16.3 L13.8,6.7 Z M7,8.5 C7.33137085,8.5 7.6,8.76862915 7.6,9.1 L7.6,9.1 L7.6,14.1 C7.6,14.4313708 7.33137085,14.7 7,14.7 C6.66862915,14.7 6.4,14.4313708 6.4,14.1 L6.4,14.1 L6.4,9.1 C6.4,8.76862915 6.66862915,8.5 7,8.5 Z M11,8.5 C11.3313708,8.5 11.6,8.76862915 11.6,9.1 L11.6,9.1 L11.6,14.1 C11.6,14.4313708 11.3313708,14.7 11,14.7 C10.6686292,14.7 10.4,14.4313708 10.4,14.1 L10.4,14.1 L10.4,9.1 C10.4,8.76862915 10.6686292,8.5 11,8.5 Z M11,0.5 C11.8836556,0.5 12.6,1.2163444 12.6,2.1 L12.6,2.1 L12.599,3 L16.3239437,3 C16.663376,3 16.9443829,3.22200756 16.9926698,3.5113364 L17,3.6 C17,3.93137085 16.6973193,4.2 16.3239437,4.2 L16.3239437,4.2 L1.67605634,4.2 C1.30268073,4.2 1,3.93137085 1,3.6 C1,3.26862915 1.30268073,3 1.67605634,3 L1.67605634,3 L5.399,3 L5.4,2.1 C5.4,1.26543638 6.03896152,0.580110215 6.85436739,0.506538677 L7,0.5 Z M11,1.7 L7,1.7 C6.7790861,1.7 6.6,1.8790861 6.6,2.1 L6.6,2.1 L6.599,3 L11.399,3 L11.4,2.1 C11.4,1.90670034 11.2628872,1.74542508 11.080614,1.70812658 L11,1.7 Z" id="path-1"></path>
    </defs>
    <g id="对话行为" stroke="none" stroke-width="1" fill="none" fill-rule="evenodd">
        <g id="2_1对话行为分类详情" transform="translate(-1193.000000, -585.000000)">
            <g id="分组-11" transform="translate(240.000000, 68.000000)">
                <g id="分组-6" transform="translate(20.000000, 345.000000)">
                    <g transform="translate(0.000000, 34.000000)" id="编组-16">
                        <g transform="translate(20.000000, 98.000000)">
                            <g id="分组-5" transform="translate(0.000000, 30.000000)">
                                <g id="02圖標/08圖像圖標/CRUD類型-刪除" transform="translate(912.000000, 10.000000)">
                                    <mask id="mask-2" fill="white">
                                        <use xlink:href="#path-1"></use>
                                    </mask>
                                    <use id="形状结合" fill="#979797" fill-rule="nonzero" xlink:href="#path-1"></use>
                                    <g id="01色票/02圖標/04新淺色" mask="url(#mask-2)" fill="#9BA6B1" fill-rule="evenodd">
                                        <rect id="淺色" x="0" y="0" width="18" height="18"></rect>
                                    </g>
                                </g>
                            </g>
                        </g>
                    </g>
                </g>
            </g>
        </g>
    </g>
</svg>