<?xml version="1.0" encoding="UTF-8"?>
<svg width="214px" height="214px" viewBox="0 0 214 214" version="1.1" xmlns="http://www.w3.org/2000/svg" xmlns:xlink="http://www.w3.org/1999/xlink">
    <!-- Generator: Sketch 52.1 (67048) - http://www.bohemiancoding.com/sketch -->
    <title>03 Icon/07 Graphic/download</title>
    <desc>Created with Sketch.</desc>
    <defs>
        <path d="M7.00009215,0.777777778 C7.13095302,0.777777778 7.26034353,0.829913594 7.36032711,0.932651819 L9.65112739,3.32323232 C9.8496242,3.53024218 9.8496242,3.86605817 9.65112739,4.07306803 C9.55555485,4.17273944 9.42763468,4.22794207 9.29236278,4.22794207 C9.15709087,4.22794207 9.0291707,4.17273944 8.93359816,4.07306803 L7.50883214,2.58719727 L7.50883214,9.11388585 C7.50883214,9.40676646 7.28092839,9.64444444 7.00009215,9.64444444 C6.71925592,9.64444444 6.49135217,9.40676646 6.49135217,9.11388585 L6.49135217,2.58719727 L5.06658614,4.07306803 C4.86808933,4.28007789 4.54608338,4.28007789 4.34905692,4.07306803 C4.1505601,3.86605817 4.1505601,3.53024218 4.34758657,3.32323232 L6.63985719,0.932651819 C6.73837043,0.829913594 6.86923129,0.777777778 7.00009215,0.777777778 Z M13.459375,6.84619663 C13.7578125,6.84619663 14,7.11778612 14,7.45070227 L14,11.3563343 C14,11.9555834 13.565625,12.4444444 13.0296875,12.4444444 L0.9703125,12.4444444 C0.4359375,12.4444444 0,11.9573356 0,11.3563343 L0,7.45070227 C0,7.11778612 0.240625,6.84444444 0.5390625,6.84444444 C0.8375,6.84444444 1.0796875,7.11603393 1.0796875,7.45070227 L1.0796875,10.8762342 C1.0796875,11.0759839 1.225,11.2371854 1.4015625,11.2371854 L12.596875,11.2371854 C12.775,11.2371854 12.91875,11.0742317 12.91875,10.8762342 L12.91875,7.45245446 C12.91875,7.11778612 13.1609375,6.84619663 13.459375,6.84619663 Z" id="path-1"></path>
    </defs>
    <g id="标准问" stroke="none" stroke-width="1" fill="none" fill-rule="evenodd">
        <g id="05_5批量分类" transform="translate(-1044.000000, -68.000000)">
            <rect fill="transparent" x="0" y="0" width="1280" height="840"></rect>
            <g id="分组-6" transform="translate(330.000000, 154.000000)">
                <g id="Group" transform="translate(542.000000, 0.000000)">
                    <g id="Group-12" transform="translate(252.000000, 0.000000)">
                        <g id="03-Icon/07-Graphic/upload" transform="translate(20.000000, 14.000000)">
                            <mask id="mask-2" fill="white">
                                <use xlink:href="#path-1"></use>
                            </mask>
                            <use id="upload-Icon" fill="#FFFFFF" fill-rule="evenodd" xlink:href="#path-1"></use>
                            <g id="13-Palette/Icon/Normal" mask="url(#mask-2)" fill="#65748D" fill-rule="evenodd">
                                <rect id="Fill/Button-Background" x="0" y="0" width="14" height="14" rx="4"></rect>
                            </g>
                        </g>
                    </g>
                </g>
            </g>
        </g>
    </g>
</svg>